<svg xmlns="http://www.w3.org/2000/svg" viewBox="0 0 34 39.67"><defs><style>.cls-1{fill:#fff;}</style></defs><title>File</title><g id="图层_2" data-name="图层 2"><g id="图层_1-2" data-name="图层 1"><path class="cls-1" d="M34,12v25.5a2.13,2.13,0,0,1-2.12,2.13H2.12A2.13,2.13,0,0,1,0,37.54V2.12A2.13,2.13,0,0,1,2.12,0H22a5.94,5.94,0,0,1,3.63,1.51l6.91,6.91A5.94,5.94,0,0,1,34,12Zm-2,1.79H22.25A2.25,2.25,0,0,1,20,11.58V1.83H2v36H32Zm-23.25,3h16.5a.74.74,0,0,1,.75.75v1.5a.74.74,0,0,1-.75.75H8.75A.74.74,0,0,1,8,19.08v-1.5a.74.74,0,0,1,.75-.75ZM26,23.58v1.5a.74.74,0,0,1-.75.75H8.75A.74.74,0,0,1,8,25.08v-1.5a.74.74,0,0,1,.75-.75h16.5a.74.74,0,0,1,.75.75Zm0,6v1.5a.74.74,0,0,1-.75.75H8.75A.74.74,0,0,1,8,31.08v-1.5a.74.74,0,0,1,.75-.75h16.5a.74.74,0,0,1,.75.75ZM23,10.83h8.81a3,3,0,0,0-.52-1L24,2.54A3,3,0,0,0,23,2Zm0,0"/></g></g></svg>