<svg xmlns="http://www.w3.org/2000/svg" viewBox="0 0 42 35"><defs><style>.cls-1{fill:#fff;}</style></defs><title>images</title><g id="图层_2" data-name="图层 2"><g id="图层_1-2" data-name="图层 1"><path class="cls-1" d="M39.67,0H2.33A2.32,2.32,0,0,0,0,2.32V32.68A2.34,2.34,0,0,0,2.33,35H39.67A2.32,2.32,0,0,0,42,32.68V2.32A2.34,2.34,0,0,0,39.67,0ZM2.94,32.68l8.37-8.85L17.1,30l.08.09,2.47,2.61Zm36.73,0H22.79l-3.3-3.49L32.27,15.66l7.4,7.82Zm0-12.48-6.55-6.92a.63.63,0,0,0-.06-.09,1.1,1.1,0,0,0-1.59,0,.65.65,0,0,0-.06.09L17.93,27.53l-5.78-6.1s0-.07-.06-.09a1.05,1.05,0,0,0-.79-.34,1.09,1.09,0,0,0-.79.34.67.67,0,0,0-.06.09L2.33,30V2.33s37.33,0,37.33,0ZM11.12,12.8A4.07,4.07,0,1,0,7,8.73a4.09,4.09,0,0,0,4.12,4.07Zm0-5.83A1.82,1.82,0,1,1,9.33,8.79,1.81,1.81,0,0,1,11.14,7Zm0,0"/></g></g></svg>