<svg xmlns="http://www.w3.org/2000/svg" viewBox="0 0 42 41.84"><defs><style>.cls-1{fill:#fff;}</style></defs><title>Lasso</title><g id="图层_2" data-name="图层 2"><g id="图层_1-2" data-name="图层 1"><path class="cls-1" d="M8.14,30.29H7.88c-3.15,0-4.46-.52-4.46-2.1,0-.79.52-1.31,1.31-1.84,1,1.31,2.62,2.89,3.41,3.94Zm-.26-4.46c3.15,0,4.46.79,4.46,2.36A1.74,1.74,0,0,1,10.76,30a46.48,46.48,0,0,0-3.67-4.2Zm12.07,3.94C31.76,29,42,20.84,42,13,42,6.14,34.39-.95,22.31.1,10.24.89,0,8.5,0,17.69c0,2.36.52,5.25,2.1,7.09A3.43,3.43,0,0,0,.26,27.93c0,2.63,3.41,4.73,7.61,4.73h1c1,.79,2.89,2.1,2.89,3.41.26,2.1-3.15,5.78-3.15,5.78h2.62s2.89-4.46,2.62-6c0-1-1.31-2.62-2.36-3.67A5.72,5.72,0,0,0,15,29.77ZM22,3c11-.52,16.8,4.46,17.33,10,.52,5.78-8.4,13.65-19.43,14.17H15.22c-.79-2.1-3.67-3.67-7.35-3.67A11.16,11.16,0,0,0,5,24a8.92,8.92,0,0,1-1.84-3.94C1,12.44,10.76,3.52,22,3Zm0,0"/></g></g></svg>