<svg xmlns="http://www.w3.org/2000/svg" viewBox="0 0 42 33.28"><defs><style>.cls-1{fill:#fff;}</style></defs><title>Media</title><g id="图层_2" data-name="图层 2"><g id="图层_1-2" data-name="图层 1"><path class="cls-1" d="M38.07,5.12H33.64a2.89,2.89,0,0,1-2.44-1.36L29.63,1.22A2.54,2.54,0,0,0,27.47,0H14.55a2.53,2.53,0,0,0-2.14,1.2L10.9,3.65A3.06,3.06,0,0,1,8.27,5.12H3.95C2.65,5.12,0,6.41,0,8.92V29.44a4,4,0,0,0,3.65,3.84H38.14A4.21,4.21,0,0,0,42,29.48V8.95a4.1,4.1,0,0,0-3.93-3.82ZM39.4,29.46c0,.5-.84,1.22-1.24,1.24H3.67a1.52,1.52,0,0,1-1.05-1.28V8.92c0-.82,1.11-1.22,1.3-1.24h6.13a2.45,2.45,0,0,0,2.12-1.2l0-.06L13.9,3.7A2.42,2.42,0,0,1,16,2.54H26.1a2.43,2.43,0,0,1,2.08,1.18l1.64,2.71A2.46,2.46,0,0,0,32,7.66h6.07c.92,0,1.3,1.18,1.3,1.28V29.46Zm0,0"/><path class="cls-1" d="M21,8.95a9.08,9.08,0,0,0-9.2,8.95A9.08,9.08,0,0,0,21,26.84a9.08,9.08,0,0,0,9.2-8.95A9.1,9.1,0,0,0,21,8.95Zm0,15.37a6.41,6.41,0,1,1,6.55-6.4A6.49,6.49,0,0,1,21,24.32Zm0,0"/></g></g></svg>