<?xml version="1.0" encoding="utf-8"?>
<!-- Generator: Adobe Illustrator 21.1.0, SVG Export Plug-In . SVG Version: 6.00 Build 0)  -->
<svg version="1.1" id="图层_1" xmlns="http://www.w3.org/2000/svg" xmlns:xlink="http://www.w3.org/1999/xlink" x="0px" y="0px"
	 viewBox="0 0 40.1 40.1" style="enable-background:new 0 0 40.1 40.1;" xml:space="preserve">
<style type="text/css">
	.st0{fill:#FFFFFF;}
</style>
<title>Protractor</title>
<g id="图层_2">
	<g id="图层_1-2">
		<g>
			<path class="st0" d="M19.5,19.5"/>
		</g>
		<g>
			<path class="st0" d="M39.6,8.5l-1.8-1.8c-8.6-8.6-22.5-8.6-31.1,0c0,0,0,0,0,0l0,0c-8.6,8.6-8.6,22.5,0,31.1c0,0,0,0,0,0l1.8,1.8
				c0.2,0.2,0.6,0.2,0.9,0l5.9-5.9c0.2-0.2,0.2-0.6,0-0.9L14,31.5L29.5,16c0.2-0.3,0.2-0.7,0-0.9c-0.2-0.2-0.6-0.2-0.8,0L12.6,31
				c-0.2,0.2-0.2,0.6,0,0.9l1.3,1.3l-5,5L8,37.4l1.3-1.3c0.3-0.2,0.3-0.6,0-0.9c-0.2-0.3-0.6-0.3-0.9,0c0,0,0,0,0,0l-1.3,1.3
				c-0.8-0.8-1.5-1.7-2.2-2.6l1.6-1c0.3-0.1,0.5-0.5,0.4-0.8c-0.1-0.3-0.5-0.5-0.8-0.4c-0.1,0-0.2,0.1-0.2,0.1l-1.6,1
				c-0.6-1-1.1-2-1.5-3.1l1.8-0.6C5,29,5.2,28.6,5.1,28.3s-0.5-0.5-0.8-0.4l-1.8,0.6c-0.3-1.1-0.6-2.2-0.8-3.3L3.6,25
				c0.3,0,0.6-0.3,0.6-0.7c0-0.3-0.3-0.6-0.7-0.6c0,0,0,0-0.1,0L1.6,24c0-0.6-0.1-1.1-0.1-1.7c0-0.6,0-1.1,0.1-1.7l1.9,0.2
				c0.3,0,0.6-0.2,0.7-0.6c0-0.3-0.2-0.6-0.5-0.7l-1.9-0.2c0.2-1.1,0.4-2.3,0.8-3.3l1.8,0.6c0.3,0.1,0.7-0.1,0.8-0.4
				c0.1-0.3-0.1-0.7-0.4-0.8l-1.8-0.6c0.4-1.1,0.9-2.1,1.5-3.1l1.6,1c0.3,0.2,0.7,0.1,0.9-0.2s0.1-0.7-0.2-0.9l-1.6-1
				C5.6,9.8,6.4,8.9,7.2,8l1.3,1.3c0.2,0.3,0.6,0.3,0.9,0s0.3-0.6,0-0.9c0,0,0,0,0,0L8,7.2C8.8,6.4,9.7,5.6,10.7,5l1,1.6
				c0.1,0.3,0.4,0.5,0.8,0.4c0.3-0.1,0.5-0.4,0.4-0.8c0-0.1-0.1-0.2-0.1-0.3l-1-1.6c1-0.6,2-1.1,3.1-1.5l0.6,1.8
				c0.1,0.3,0.5,0.5,0.8,0.4c0.3-0.1,0.5-0.5,0.4-0.8L16,2.5c1.1-0.3,2.2-0.6,3.3-0.8l0.2,1.9c0.1,0.3,0.4,0.6,0.7,0.5
				c0.3-0.1,0.5-0.3,0.5-0.7l-0.2-1.9c0.6,0,1.1-0.1,1.7-0.1c0.6,0,1.1,0,1.7,0.1l-0.2,1.9c0,0.3,0.2,0.7,0.6,0.7S25,3.9,25,3.6
				l0.2-1.9c1.1,0.2,2.2,0.4,3.3,0.8l-0.6,1.8c-0.1,0.3,0.1,0.7,0.4,0.8S29,5,29.1,4.7l0,0l0.6-1.8c1.1,0.4,2.1,0.9,3.1,1.5l-1,1.6
				c-0.2,0.3-0.1,0.7,0.2,0.9c0.3,0.2,0.7,0.1,0.9-0.2l1-1.6c0.9,0.6,1.8,1.3,2.7,2.1l-1.3,1.3c-0.2,0.3-0.2,0.7,0,0.9
				c0.2,0.2,0.6,0.2,0.8,0L37.4,8l0.9,0.9l-5,5L32,12.5c-0.2-0.2-0.6-0.2-0.9,0l-3,3c-0.3,0.2-0.3,0.6,0,0.9c0.2,0.3,0.6,0.3,0.9,0
				c0,0,0,0,0,0l2.5-2.4l1.3,1.3c0.2,0.2,0.6,0.2,0.9,0l5.9-5.9C39.9,9.2,39.9,8.8,39.6,8.5L39.6,8.5z"/>
			<path class="st0" d="M8.9,40.1c-0.2,0-0.4-0.1-0.6-0.3L6.5,38c-8.7-8.7-8.7-22.8,0-31.5C10.8,2.3,16.3,0,22.3,0c0,0,0,0,0,0
				C28.2,0,33.8,2.3,38,6.5l1.9,1.9l0,0.1c0.2,0.3,0.2,0.8-0.1,1.1l-5.9,5.9c-0.3,0.3-0.9,0.3-1.2,0l-1.2-1.2L29.8,16
				c0,0.1-0.1,0.1-0.1,0.2L14.3,31.5l1.1,1.2c0.3,0.3,0.3,0.9,0,1.2l-5.9,5.9C9.4,40,9.1,40.1,8.9,40.1z M22.3,0.5
				C16.5,0.5,11,2.7,6.9,6.8c-8.5,8.5-8.5,22.3-0.1,30.8l1.8,1.8c0.1,0.1,0.4,0.1,0.5,0l5.9-5.9c0.1-0.1,0.1-0.4,0-0.5l-1.5-1.5
				l14.6-14.6c-0.2,0-0.3-0.1-0.4-0.3c-0.1-0.1-0.1-0.2-0.2-0.2L12.8,31.2c-0.1,0.1-0.1,0.4,0,0.5l1.5,1.5L9,38.6l-1.3-1.1l1.5-1.5
				c0.1-0.1,0.1-0.2,0.1-0.3c0-0.1,0-0.2-0.1-0.3c-0.1-0.2-0.4-0.2-0.5,0l-1.5,1.5L7,36.7c-0.8-0.8-1.5-1.7-2.2-2.7l-0.1-0.2
				l1.8-1.1c0.2-0.1,0.2-0.1,0.3-0.2s0.1-0.2,0-0.3c-0.1-0.2-0.3-0.3-0.5-0.2c0,0-0.1,0-0.1,0.1l-1.8,1.2l-0.1-0.2
				c-0.6-1-1.1-2-1.5-3.1l-0.1-0.2l2-0.7c0.2-0.1,0.3-0.3,0.2-0.5s-0.3-0.3-0.5-0.2l-2,0.7l-0.1-0.2c-0.3-1.1-0.6-2.2-0.8-3.3l0-0.3
				l2.1-0.2c0.2,0,0.4-0.2,0.4-0.4c0-0.1,0-0.2-0.1-0.3C3.7,24,3.6,24,3.5,24l-2.2,0.3l0-0.3c0-0.6-0.1-1.2-0.1-1.7s0-1.2,0.1-1.7
				l0-0.3l2.1,0.2c0.1,0,0.2,0,0.3-0.1s0.1-0.2,0.1-0.3c0-0.2-0.1-0.4-0.3-0.4l-2.1-0.2l0-0.3c0.2-1.1,0.4-2.3,0.8-3.4l0.1-0.2
				l2,0.7c0.1,0,0.2,0,0.3,0c0.1,0,0.2-0.1,0.2-0.2c0-0.1,0-0.2,0-0.3c0-0.1-0.1-0.2-0.2-0.2l-2-0.7l0.1-0.2
				c0.4-1.1,0.9-2.1,1.5-3.1l0.1-0.2l1.8,1.1c0.2,0.1,0.4,0.1,0.5-0.1s0.1-0.4-0.1-0.5l-1.9-1.1l0.2-0.2C5.4,9.6,6.2,8.7,7,7.9
				l0.2-0.2l1.5,1.5c0.1,0.2,0.4,0.2,0.5,0c0.2-0.1,0.2-0.4,0-0.5L7.6,7.2L7.8,7c0.8-0.8,1.8-1.5,2.7-2.2l0.2-0.1l1.2,1.9
				c0,0.1,0.1,0.2,0.2,0.2c0.1,0,0.2,0.1,0.3,0c0.1,0,0.2-0.1,0.2-0.2c0-0.1,0.1-0.2,0-0.3c0-0.1,0-0.1-0.1-0.2l-1.2-1.9l0.2-0.1
				c1-0.6,2-1.1,3.1-1.5L15,2.6l0.7,2c0.1,0.2,0.3,0.3,0.5,0.2c0.2-0.1,0.3-0.3,0.2-0.5l-0.7-2.1l0.2-0.1c1.1-0.3,2.2-0.6,3.4-0.8
				l0.3,0l0.2,2.1c0,0.2,0.2,0.3,0.4,0.3c0.2,0,0.3-0.2,0.3-0.4l-0.2-2.1l0.3,0c1.1-0.1,2.3-0.1,3.4,0l0.2,0L24,3.5
				c0,0.1,0,0.2,0.1,0.3c0.1,0.1,0.2,0.1,0.3,0.1c0.2,0,0.4-0.1,0.4-0.3L25,1.4l0.3,0c1.1,0.2,2.3,0.4,3.3,0.8l0.2,0.1l-0.7,2
				c0,0.1,0,0.2,0,0.3s0.1,0.2,0.2,0.2c0.1,0,0.2,0,0.3,0c0.1,0,0.2-0.1,0.2-0.2l0.7-2l0.2,0.1c1.1,0.4,2.1,0.9,3.1,1.5l0.2,0.1
				L32,6.1c-0.1,0.1-0.1,0.2,0,0.3c0,0.1,0.1,0.2,0.2,0.2c0.1,0.1,0.2,0.1,0.3,0c0.1,0,0.2-0.1,0.2-0.2l1.1-1.8L34,4.8
				c0.9,0.6,1.8,1.4,2.7,2.1l0.2,0.2l-1.5,1.5c-0.1,0.1-0.1,0.4,0,0.5c0.1,0.1,0.4,0.1,0.5,0l1.5-1.6l1.2,1.2l-5.4,5.4l-1.5-1.5
				c-0.1-0.1-0.4-0.1-0.5,0l-2,2c0.1,0,0.3,0.1,0.4,0.2c0.1,0.1,0.2,0.2,0.2,0.3l1.7-1.6l1.5,1.5c0.1,0.1,0.4,0.1,0.5,0l5.9-5.9
				c0.1-0.1,0.1-0.4,0-0.5l-0.1-0.1l0-0.1l-1.7-1.7C33.6,2.8,28.1,0.5,22.3,0.5C22.3,0.5,22.3,0.5,22.3,0.5z M8.4,37.4l0.6,0.5
				l4.7-4.7l-1.2-1.2c-0.3-0.3-0.3-0.9,0-1.2l15.3-15.2c0-0.1,0.1-0.2,0.2-0.3l3-3c0.3-0.3,0.9-0.3,1.2,0l1.2,1.2l4.6-4.6l-0.5-0.5
				l-1.2,1.2c-0.3,0.3-0.9,0.3-1.2,0c-0.4-0.3-0.4-0.9-0.1-1.2l1.2-1.2c-0.7-0.6-1.4-1.2-2.2-1.8l-0.9,1.4c-0.1,0.2-0.3,0.3-0.5,0.4
				c-0.2,0.1-0.5,0-0.7-0.1c-0.2-0.1-0.3-0.3-0.4-0.6c-0.1-0.2,0-0.5,0.1-0.7l0.9-1.4c-0.8-0.5-1.7-0.9-2.6-1.2l-0.5,1.5
				c-0.1,0.2-0.2,0.4-0.5,0.5c-0.2,0.1-0.5,0.1-0.7,0c-0.2-0.1-0.4-0.2-0.5-0.5s-0.1-0.5,0-0.7l0.5-1.5c-0.9-0.3-1.8-0.5-2.8-0.6
				l-0.2,1.6c-0.1,0.5-0.5,0.8-1,0.8c-0.2,0-0.4-0.1-0.6-0.3c-0.1-0.2-0.2-0.4-0.2-0.6l0.2-1.6c-0.9-0.1-1.9-0.1-2.8,0L21,3.4
				c0,0.5-0.3,0.9-0.7,0.9c-0.5,0.1-0.9-0.2-1-0.7L19.1,2c-0.9,0.1-1.9,0.4-2.8,0.6l0.6,1.6c0.2,0.5-0.1,1-0.5,1.1
				c-0.5,0.2-1-0.1-1.1-0.5l-0.5-1.5c-0.9,0.4-1.7,0.8-2.6,1.2L13,5.9c0.1,0.1,0.1,0.2,0.2,0.3c0.1,0.5-0.1,1-0.6,1.1
				c-0.2,0.1-0.5,0-0.7-0.1c-0.2-0.1-0.3-0.3-0.4-0.5l-0.8-1.4C9.8,5.9,9.1,6.5,8.4,7.2l1.2,1.2c0.3,0.4,0.3,0.9-0.1,1.2
				C9.2,9.9,8.6,9.9,8.3,9.5L7.2,8.4c-0.6,0.7-1.2,1.4-1.8,2.2l1.4,0.8c0.4,0.3,0.5,0.8,0.3,1.2S6.2,13.2,5.8,13l-1.4-0.9
				c-0.5,0.8-0.9,1.7-1.2,2.6l1.5,0.5c0.2,0.1,0.4,0.2,0.5,0.5s0.1,0.5,0,0.7c-0.1,0.2-0.2,0.4-0.5,0.5c-0.2,0.1-0.5,0.1-0.7,0
				l-1.5-0.5c-0.3,0.9-0.5,1.9-0.6,2.8l1.6,0.2c0.5,0.1,0.8,0.5,0.7,0.9c0,0.5-0.4,0.9-0.9,0.8l-1.6-0.2c0,0.5,0,0.9,0,1.4
				s0,1,0,1.4l1.6-0.2c0,0,0.1,0,0.1,0c0.2,0,0.5,0.1,0.6,0.2c0.2,0.2,0.3,0.4,0.3,0.6c0,0.5-0.3,0.9-0.8,0.9L2,25.4
				c0.1,0.9,0.4,1.9,0.6,2.8l1.5-0.5c0.5-0.2,1,0.1,1.1,0.5c0.2,0.5-0.1,1-0.5,1.1l-1.5,0.5c0.4,0.9,0.8,1.7,1.2,2.6l1.4-0.9
				c0.1-0.1,0.2-0.1,0.3-0.1c0.5-0.1,1,0.1,1.1,0.6c0.1,0.2,0.1,0.5-0.1,0.7S6.9,33,6.7,33.1l-1.3,0.8c0.5,0.8,1.2,1.5,1.8,2.2
				L8.3,35c0.4-0.3,0.9-0.3,1.2,0.1c0.2,0.2,0.2,0.4,0.2,0.6c0,0.2-0.1,0.5-0.3,0.6L8.4,37.4z M28.1,15.9c0,0.1,0,0.3,0.1,0.3
				c0.1,0.2,0.4,0.2,0.5,0l0.6-0.6c0,0,0-0.1,0-0.1c0-0.1,0-0.2-0.1-0.3c-0.1-0.1-0.4-0.1-0.5,0L28.1,15.9z"/>
		</g>
		<g>
			<path class="st0" d="M26.9,7.7c-8-2.6-16.6,1.9-19.2,9.9c-1,3-1,6.3,0,9.3c0.1,0.3,0.5,0.5,0.8,0.4c0.1,0,0.1-0.1,0.2-0.1l3-3
				c0.2-0.3,0.2-0.7,0-0.9c-0.2-0.2-0.6-0.2-0.8,0l-2.2,2.2C6.8,18,11.4,10.4,19,8.6c2.2-0.5,4.4-0.5,6.6,0L13.8,20.3
				c-0.3,0.2-0.3,0.6,0,0.9c0.2,0.3,0.6,0.3,0.9,0c0,0,0,0,0,0L27.2,8.7c0.2-0.3,0.2-0.7-0.1-0.9C27,7.8,27,7.8,26.9,7.7L26.9,7.7z"
				/>
			<path class="st0" d="M8.3,27.6c-0.1,0-0.2,0-0.4-0.1c-0.2-0.1-0.4-0.3-0.5-0.5c-1-3.1-1-6.4,0-9.4C10.1,9.4,18.8,4.9,27,7.5
				l0.2,0.1l0,0.1c0,0,0,0,0.1,0.1c0.4,0.3,0.4,0.9,0.1,1.2L14.8,21.4c-0.2,0.2-0.4,0.2-0.6,0.2c-0.2,0-0.5-0.1-0.6-0.3
				c-0.3-0.4-0.3-0.9,0.1-1.2L25,8.8c-2-0.4-4-0.4-6,0.1c-3.6,0.9-6.6,3.1-8.5,6.2c-1.8,3-2.4,6.5-1.7,10l1.9-1.9
				c0.3-0.3,0.9-0.3,1.2,0c0.4,0.3,0.4,0.9,0.1,1.2l-3,3c-0.1,0.1-0.2,0.1-0.3,0.2C8.5,27.6,8.4,27.6,8.3,27.6z M22.3,7.2
				c-2.4,0-4.7,0.6-6.9,1.7c-3.6,1.8-6.2,5-7.4,8.8c-1,3-1,6.1,0,9.1C8,26.9,8,27,8.1,27c0.1,0,0.2,0,0.3,0c0,0,0.1,0,0.1-0.1l3-3
				c0.1-0.1,0.1-0.4,0-0.5c-0.1-0.1-0.4-0.1-0.5,0L8.5,26l-0.1-0.4c-0.9-3.7-0.3-7.5,1.7-10.8c2-3.2,5.1-5.5,8.8-6.4
				c2.2-0.5,4.5-0.5,6.7,0L26,8.5l-12,12c-0.2,0.1-0.2,0.4,0,0.5c0.1,0.1,0.2,0.1,0.3,0.1c0.1,0,0.2,0,0.3-0.1L27,8.6
				c0.1-0.1,0.1-0.4-0.1-0.5c0,0-0.1-0.1-0.1-0.1l-0.2-0.1l0,0C25.2,7.4,23.7,7.2,22.3,7.2z"/>
		</g>
	</g>
</g>
</svg>
