<?xml version="1.0" encoding="utf-8"?>
<!-- Generator: Adobe Illustrator 21.1.0, SVG Export Plug-In . SVG Version: 6.00 Build 0)  -->
<svg version="1.1" id="图层_1" xmlns="http://www.w3.org/2000/svg" xmlns:xlink="http://www.w3.org/1999/xlink" x="0px" y="0px"
	 viewBox="0 0 44 32" style="enable-background:new 0 0 44 32;" xml:space="preserve">
<style type="text/css">
	.st0{fill:#FFFFFF;}
</style>
<title>Rectangle</title>
<g id="图层_2">
	<g id="图层_1-2">
		<g>
			<path class="st0" d="M39.3,32H4.7C2.1,32,0,29.9,0,27.3V4.7C0,2.1,2.1,0,4.7,0h34.6C41.9,0,44,2.1,44,4.7v22.6
				C44,29.9,41.9,32,39.3,32z M4.7,2C3.2,2,2,3.2,2,4.7v22.6C2,28.8,3.2,30,4.7,30h34.6c1.5,0,2.7-1.2,2.7-2.7V4.7
				C42,3.2,40.8,2,39.3,2H4.7z"/>
		</g>
	</g>
</g>
</svg>
