<svg xmlns="http://www.w3.org/2000/svg" viewBox="0 0 42 42"><defs><style>.cls-1{fill:#fff;}</style></defs><title>Select</title><g id="图层_2" data-name="图层 2"><g id="图层_1-2" data-name="图层 1"><polygon class="cls-1" points="19.77 24.09 19.77 33.97 13.59 33.97 21 42 28.41 33.97 22.23 33.97 22.23 24.09 22.23 17.91 22.23 8.03 28.41 8.03 21 0 13.59 8.03 19.77 8.03 19.77 17.91 19.77 24.09"/><polygon class="cls-1" points="17.91 19.77 8.03 19.77 8.03 13.59 0 21 8.03 28.41 8.03 22.23 17.91 22.23 24.09 22.23 33.97 22.23 33.97 28.41 42 21 33.97 13.59 33.97 19.77 24.09 19.77 17.91 19.77"/></g></g></svg>