<svg xmlns="http://www.w3.org/2000/svg" viewBox="0 0 41.02 42"><defs><style>.cls-1{fill:#fff;}</style></defs><title>Shapes</title><g id="图层_2" data-name="图层 2"><g id="图层_1-2" data-name="图层 1"><path class="cls-1" d="M27.63,13.24,29,15.65A12.18,12.18,0,1,1,15.1,31.52H12.76A14.4,14.4,0,1,0,27.63,13.24Z"/><path class="cls-1" d="M29.14,28.59H2.55A2.73,2.73,0,0,1,.33,27.48,2.39,2.39,0,0,1,.33,25L13.63,1.33a2.37,2.37,0,0,1,2-1.33,2.13,2.13,0,0,1,2,1.33L30.91,25a2.39,2.39,0,0,1,0,2.44,2,2,0,0,1-1.77,1.11ZM2.33,26.37h27a.22.22,0,0,0-.22-.22L15.84,2.44a.22.22,0,0,0-.22-.22l-.22.22L2.11,26.15a.22.22,0,0,1,.22.22Zm0,0"/></g></g></svg>