<?xml version="1.0" encoding="utf-8"?>
<!-- Generator: Adobe Illustrator 21.1.0, SVG Export Plug-In . SVG Version: 6.00 Build 0)  -->
<svg version="1.1" id="图层_1" xmlns="http://www.w3.org/2000/svg" xmlns:xlink="http://www.w3.org/1999/xlink" x="0px" y="0px"
	 viewBox="0 0 32.6 48.6" style="enable-background:new 0 0 32.6 48.6;" xml:space="preserve">
<style type="text/css">
	.st0{fill:#FFFFFF;}
</style>
<title>Tap</title>
<g id="图层_2">
	<g id="图层_1-2">
		<g>
			<path class="st0" d="M11.5,28.3c-0.6,0.3-1.2,0.7-1.7,1.2c-2.5,2.3-3.3,7.7-0.5,12c3.1,4.7,6.8,6.7,12.3,6.7
				c5.8,0,7.7-2.9,9.2-5.9c1.5-3,1.5-13.9,1.5-14.3c-0.1-1.6-1.4-2.8-3-2.8l0,0c-0.4,0-0.8,0.1-1.1,0.2c-0.1-1.8-1.7-3.1-3.4-3
				c-0.6,0-1.3,0.3-1.8,0.7c-0.4-1.2-1.5-2.1-2.8-2.1c-0.9,0-1.7,0.4-2.2,1l-0.3-5.5c0.1-1.8-1.2-3.3-3-3.5c-1.8-0.1-3.3,1.2-3.5,3
				c0,0.2,0,0.3,0,0.5L11.5,28.3z M29.6,41.7c-1.4,2.8-3,5.1-8,5.1s-8.2-1.8-11.1-6.1c-1.7-2.5-2.4-7.8,0.3-10.2
				c0.2-0.2,0.5-0.4,0.8-0.6l0.1,4.8c0,0.4,0.3,0.7,0.7,0.7c0,0,0,0,0,0c0.4,0,0.7-0.3,0.7-0.7l-0.4-18.1c-0.1-1,0.6-1.9,1.6-2.1
				c1-0.1,1.9,0.6,2.1,1.6c0,0.2,0,0.3,0,0.5l0.5,9.9c0,0.4,0.3,0.6,0.6,0.7c0.3,0,0.7-0.2,0.7-0.6l0.4-2.1c0,0,0-0.1,0-0.1
				c0-1,0.7-1.8,1.6-1.8c0,0,0,0,0.1,0c0.9,0,1.6,0.8,1.6,1.7c0,0,0,0.1,0,0.1v1.4c0,0.4,0.3,0.7,0.7,0.7c0.4,0,0.7-0.3,0.7-0.7
				c0,0,0,0,0,0c0-1,0.8-1.8,1.8-1.8c1,0,1.8,0.8,1.8,1.8l0,0v3c0,0.4,0.3,0.7,0.7,0.7c0.4,0,0.7-0.3,0.7-0.7V27
				c0.4-0.2,0.7-0.3,1.1-0.3c0.8,0,1.5,0.5,1.6,1.3C30.9,31.1,30.6,39.5,29.6,41.7L29.6,41.7z"/>
			<path class="st0" d="M21.6,48.6c-5.6,0-9.4-2.1-12.6-6.9c-2.9-4.4-2-10.1,0.6-12.5c0.5-0.4,1-0.8,1.5-1.2l-0.3-11.5
				c0-0.2,0-0.4,0-0.5c0.2-2,1.9-3.5,3.9-3.3c2,0.2,3.5,1.9,3.3,3.9l0.3,4.7c0.6-0.4,1.2-0.6,1.9-0.6c0,0,0,0,0,0
				c1.3,0,2.4,0.7,3,1.9c0.5-0.3,1-0.5,1.6-0.5c1.8-0.1,3.4,1.1,3.8,2.9c0.3-0.1,0.5-0.1,0.8-0.1c1.8,0,3.3,1.3,3.4,3.1
				c0,2-0.1,11.7-1.5,14.5C29.6,45.6,27.6,48.6,21.6,48.6z M14.4,13.5c-1.5,0-2.7,1.1-2.8,2.6c0,0.1,0,0.3,0,0.4l0.3,11.9l-0.2,0.1
				c-0.6,0.3-1.1,0.7-1.6,1.2c-2.4,2.2-3.1,7.4-0.4,11.5c3.1,4.6,6.6,6.6,11.9,6.6c5.6,0,7.4-2.8,8.9-5.7c1-2.1,1.4-8.9,1.4-14.1
				c-0.1-1.4-1.2-2.4-2.6-2.4c0,0,0,0-0.1,0c-0.3,0-0.7,0.1-1,0.2L27.8,26l0-0.5c-0.1-1.6-1.5-2.7-3-2.6c-0.6,0-1.1,0.3-1.6,0.6
				l-0.4,0.3l-0.2-0.5c-0.3-1.1-1.3-1.8-2.4-1.8c0,0,0,0,0,0c-0.7,0-1.5,0.3-2,0.9l-0.6,0.7l-0.3-6.4c0.1-1.6-1-3-2.6-3.1
				C14.5,13.5,14.4,13.5,14.4,13.5z M21.6,47.2c-5.2,0-8.5-1.8-11.4-6.3c-1.8-2.6-2.5-8.1,0.3-10.7c0.2-0.2,0.5-0.4,0.8-0.7l0.6-0.4
				l0.1,5.5c0,0.1,0,0.2,0.1,0.2c0.1,0.1,0.1,0.1,0.2,0.1c0.2,0,0.3-0.1,0.3-0.3l-0.5-18.1c-0.1-0.6,0.1-1.1,0.4-1.6
				c0.4-0.5,0.9-0.8,1.5-0.8c0.6-0.1,1.2,0.1,1.6,0.4c0.5,0.4,0.8,0.9,0.8,1.5c0,0.2,0,0.4,0,0.6l0.5,9.8c0,0.2,0.1,0.3,0.3,0.3
				c0.1,0,0.3-0.1,0.3-0.3l0.3-2.1c-0.1-1.2,0.8-2.2,2-2.2l0.1,0c1.1,0,2,1,2,2.1l0,0.1l0,1.3c0,0.1,0,0.2,0.1,0.2s0.1,0.1,0.2,0.1
				h0c0.1,0,0.2,0,0.2-0.1s0.1-0.1,0.1-0.2c0-1.2,1-2.2,2.2-2.2s2.2,1,2.2,2.2v3c0,0.2,0.1,0.3,0.3,0.3c0.2,0,0.3-0.1,0.3-0.3v-2
				l0.2-0.1c0.4-0.2,0.8-0.3,1.3-0.3c1,0,1.9,0.7,2,1.6c0,3.1-0.2,11.5-1.3,13.8l0,0.1C28.5,44.7,26.8,47.2,21.6,47.2z M11.1,30.7
				c0,0-0.1,0.1-0.1,0.1c-2.5,2.3-1.8,7.3-0.2,9.7c2.8,4.2,5.9,5.9,10.8,5.9c4.8,0,6.3-2.2,7.6-4.8l0-0.1c0.9-1.9,1.3-9.3,1.3-13.5
				c-0.1-0.5-0.6-1-1.2-0.9c-0.3,0-0.5,0.1-0.8,0.2v1.5c0,0.6-0.5,1.1-1.1,1.1c-0.6,0-1.1-0.5-1.1-1.1v-3c0-0.8-0.7-1.5-1.5-1.5
				s-1.5,0.7-1.5,1.5c0,0.3-0.1,0.6-0.3,0.8c-0.2,0.2-0.5,0.3-0.8,0.3c0,0,0,0,0,0c-0.3,0-0.6-0.1-0.8-0.3s-0.3-0.5-0.3-0.8l0-1.5
				c0-0.7-0.5-1.3-1.3-1.3c-0.4,0-0.7,0.2-1,0.5s-0.4,0.6-0.3,1c0,0,0,0.1,0,0.2l-0.4,2.1c-0.1,0.5-0.6,0.9-1.1,0.9
				c-0.5,0-1-0.5-1-1l-0.5-9.9c0-0.2,0-0.3,0-0.4c-0.1-0.8-0.8-1.4-1.6-1.3c-0.4,0-0.7,0.2-1,0.6c-0.2,0.3-0.3,0.7-0.3,1.1l0.5,18.1
				c0,0.6-0.5,1.1-1,1.1c-0.3,0-0.6-0.1-0.8-0.3s-0.3-0.5-0.3-0.7L11.1,30.7z"/>
		</g>
		<g>
			<path class="st0" d="M6.8,13.7H1c-0.6,0-1-0.4-1-1s0.4-1,1-1h5.8c0.6,0,1,0.4,1,1S7.3,13.7,6.8,13.7z"/>
		</g>
		<g>
			<path class="st0" d="M27.4,13.7h-5.8c-0.6,0-1-0.4-1-1s0.4-1,1-1h5.8c0.6,0,1,0.4,1,1S28,13.7,27.4,13.7z"/>
		</g>
		<g>
			<path class="st0" d="M14.5,7.8c-0.6,0-1-0.4-1-1V1c0-0.6,0.4-1,1-1s1,0.4,1,1v5.8C15.5,7.3,15.1,7.8,14.5,7.8z"/>
		</g>
		<g>
			<path class="st0" d="M19.5,9.7c-0.3,0-0.5-0.1-0.7-0.3c-0.4-0.4-0.4-1,0-1.4l4.1-4.1c0.4-0.4,1-0.4,1.4,0s0.4,1,0,1.4l-4.1,4.1
				C20,9.6,19.7,9.7,19.5,9.7z"/>
		</g>
		<g>
			<path class="st0" d="M9.6,9.7c-0.3,0-0.5-0.1-0.7-0.3L4.8,5.3c-0.4-0.4-0.4-1,0-1.4c0.4-0.4,1-0.4,1.4,0L10.3,8
				c0.4,0.4,0.4,1,0,1.4C10.1,9.6,9.9,9.7,9.6,9.7z"/>
		</g>
	</g>
</g>
</svg>
