<svg xmlns="http://www.w3.org/2000/svg" viewBox="0 0 42 42"><defs><style>.cls-1{fill:#fff;}</style></defs><title>Video</title><g id="图层_2" data-name="图层 2"><g id="图层_1-2" data-name="图层 1"><path class="cls-1" d="M39,0H3A3,3,0,0,0,0,3V39a3,3,0,0,0,3,3H36.75C39.84,42,42,40.77,42,36.75V3A3,3,0,0,0,39,0ZM31.5,1.75,35,10.5H29.75l-3.5-8.75Zm-8.75,0,3.5,8.75H21L17.5,1.75ZM14,1.75l3.5,8.75H12.25L8.75,1.75ZM1.75,7c0-3.52-.47-5.23,3.6-5l3.4,8.5h-7Zm38.5,30.47a2.78,2.78,0,0,1-2.78,2.78H4A2.24,2.24,0,0,1,1.75,38V12.83a.58.58,0,0,1,.58-.58H39.67a.58.58,0,0,1,.58.58Zm0-27H38.5L35,1.75c3.94,0,5.24-1.06,5.25,5.25Z"/><polygon class="cls-1" points="14 17.5 29.75 27.25 14 35 14 17.5"/><path class="cls-1" d="M14,17.5"/></g></g></svg>