<?xml version="1.0" encoding="utf-8"?>
<!-- Generator: Adobe Illustrator 21.1.0, SVG Export Plug-In . SVG Version: 6.00 Build 0)  -->
<svg version="1.1" id="Layer_1" xmlns="http://www.w3.org/2000/svg" xmlns:xlink="http://www.w3.org/1999/xlink" x="0px" y="0px"
	 width="700px" height="700px" viewBox="0 0 700 700" style="enable-background:new 0 0 700 700;" xml:space="preserve">
<style type="text/css">
	.st0{display:none;fill:none;stroke:#3DB5E7;stroke-width:85;stroke-miterlimit:10;}
	.st1{display:none;fill:none;stroke:#048BC3;stroke-width:85;stroke-linejoin:round;stroke-miterlimit:10;}
	.st2{fill:#015172;}
	.st3{fill:none;}
	.st4{fill:#FFFFFF;}
	.st5{fill:url(#SVGID_1_);}
	.st6{fill:url(#SVGID_2_);}
</style>
<circle class="st0" cx="353.5" cy="348.5" r="200"/>
<path class="st1" d="M151.3,349.5c0.1-12.9,1.7-88.5,63.6-146.3c9.5-8.9,59.5-53.8,136.4-53.7c7.9,0,101.5,1.7,160.2,80.3
	c36.5,48.9,39.6,100.7,39.8,119.7"/>
<g>
	<g>
		<g>
			<g>
				<path class="st2" d="M350.2,350.1L231,139.5c77.5-43.8,165.3-43.1,242,2.1L350.2,350.1z"/>
			</g>
		</g>
		<g>
			<g>
				<path class="st3" d="M350.2,350.1l-242-2.1c0.8-89,45.3-164.7,122.8-208.5L350.2,350.1z"/>
			</g>
		</g>
		<g>
			<g>
				<path class="st3" d="M350.2,350.1L227.4,558.6C150.7,513.4,107.5,437,108.2,348L350.2,350.1z"/>
			</g>
		</g>
		<g>
		</g>
		<g>
			<g>
				<path class="st3" d="M350.2,350.1l119.2,210.6c-77.5,43.8-165.3,43.1-242-2.1L350.2,350.1z"/>
			</g>
		</g>
		<g>
			<g>
				<path class="st3" d="M350.2,350.1l242,2.1c-0.8,89-45.3,164.7-122.8,208.5L350.2,350.1z"/>
			</g>
		</g>
		<g>
			<g>
				<path class="st3" d="M350.2,350.1L473,141.6c76.7,45.2,119.9,121.6,119.2,210.6L350.2,350.1z"/>
			</g>
		</g>
	</g>
	<g>
		<g>
		</g>
		<g>
		</g>
		<g>
		</g>
		<g>
		</g>
		<g>
		</g>
		<g>
		</g>
		<g>
		</g>
	</g>
</g>
<ellipse transform="matrix(0.1736 -0.9848 0.9848 0.1736 -55.8671 635.0869)" class="st4" cx="350.5" cy="350.8" rx="158.2" ry="158.2"/>
<linearGradient id="SVGID_1_" gradientUnits="userSpaceOnUse" x1="464.4534" y1="-2.629" x2="501.0594" y2="-2.629" gradientTransform="matrix(0.8746 -0.4848 0.6835 1.233 -176.4315 417.287)">
	<stop  offset="0" style="stop-color:#CCE0F4;stop-opacity:0"/>
	<stop  offset="0.5028" style="stop-color:#3EDFFC;stop-opacity:0.4089"/>
	<stop  offset="0.7378" style="stop-color:#00DFFF;stop-opacity:0.6"/>
	<stop  offset="0.8034" style="stop-color:#00C2E8;stop-opacity:0.4624"/>
	<stop  offset="0.9448" style="stop-color:#0079AF;stop-opacity:0.1659"/>
	<stop  offset="1" style="stop-color:#005B97;stop-opacity:5.000000e-02"/>
</linearGradient>
<path class="st5" d="M280.4,208.4L249,225.6c-0.1,0.1-0.3,0-0.4-0.1L207.5,152c-0.1-0.1,0-0.3,0.1-0.4l31.3-17.2
	c0.1-0.1,0.3,0,0.4,0.1l41.1,73.5C280.5,208.2,280.5,208.3,280.4,208.4z"/>
<linearGradient id="SVGID_2_" gradientUnits="userSpaceOnUse" x1="1612.8795" y1="275.4793" x2="1648.8795" y2="275.4793" gradientTransform="matrix(-0.866 -0.5 0.7049 -1.2209 1678.1843 1333.9248)">
	<stop  offset="0" style="stop-color:#CCE0F4;stop-opacity:0"/>
	<stop  offset="0.5028" style="stop-color:#3EDFFC;stop-opacity:0.4089"/>
	<stop  offset="0.7378" style="stop-color:#00DFFF;stop-opacity:0.6"/>
	<stop  offset="0.8034" style="stop-color:#00C2E8;stop-opacity:0.4624"/>
	<stop  offset="0.9448" style="stop-color:#0079AF;stop-opacity:0.1659"/>
	<stop  offset="1" style="stop-color:#005B97;stop-opacity:5.000000e-02"/>
</linearGradient>
<path class="st6" d="M465.8,136.7l30.7,17.7c0.1,0.1,0.2,0.2,0.1,0.4l-42,72.8c-0.1,0.1-0.2,0.2-0.4,0.1l-30.7-17.7
	c-0.1-0.1-0.2-0.2-0.1-0.4l42-72.8C465.5,136.6,465.6,136.6,465.8,136.7z"/>
</svg>
