<svg xmlns="http://www.w3.org/2000/svg" viewBox="0 0 42 42.13"><defs><style>.cls-1{fill:#fff;}</style></defs><title>Diagram</title><g id="图层_2" data-name="图层 2"><g id="图层_1-2" data-name="图层 1"><path class="cls-1" d="M19.69,19.69H0V0H19.69ZM2.63,17.06H17.06V2.63H2.63ZM14.44,42H5.25A5.26,5.26,0,0,1,0,36.75V27.56a5.26,5.26,0,0,1,5.25-5.25h9.19a5.26,5.26,0,0,1,5.25,5.25v9.19A5.26,5.26,0,0,1,14.44,42ZM5.25,24.94a2.63,2.63,0,0,0-2.62,2.62v9.19a2.63,2.63,0,0,0,2.62,2.62h9.19a2.63,2.63,0,0,0,2.63-2.62V27.56a2.63,2.63,0,0,0-2.63-2.62Zm26.91-5.25A9.84,9.84,0,1,1,42,9.84a9.85,9.85,0,0,1-9.84,9.84Zm0-17.06a7.22,7.22,0,1,0,7.22,7.22,7.23,7.23,0,0,0-7.22-7.22Zm0,39.51-9.84-4.54V26.72l9.84-4.54L42,26.72V37.59Zm-7.22-6.22,7.22,3.33,7.22-3.33V28.4l-7.22-3.33L24.94,28.4Zm0,0"/></g></g></svg>