<svg xmlns="http://www.w3.org/2000/svg" viewBox="0 0 42 42"><defs><style>.cls-1{fill:#fff;}</style></defs><title>Math</title><g id="图层_2" data-name="图层 2"><g id="图层_1-2" data-name="图层 1"><path class="cls-1" d="M38.49,0h-35A3.53,3.53,0,0,0,0,3.52v35A3.53,3.53,0,0,0,3.52,42h35A3.53,3.53,0,0,0,42,38.48v-35A3.51,3.51,0,0,0,38.49,0Zm1.44,38.49a1.45,1.45,0,0,1-1.44,1.44h-35a1.45,1.45,0,0,1-1.44-1.44v-35A1.45,1.45,0,0,1,3.52,2.07h35a1.45,1.45,0,0,1,1.44,1.44v35ZM16.68,26a1,1,0,0,0-1.47,0l-3.12,3.12L9,26A1,1,0,0,0,7.5,27.44l3.12,3.12L7.5,33.68a1,1,0,0,0,.73,1.77,1.06,1.06,0,0,0,.73-.3L12.09,32l3.12,3.12a1,1,0,0,0,.73.3,1.06,1.06,0,0,0,.73-.3,1,1,0,0,0,0-1.47l-3.12-3.12,3.12-3.12a1,1,0,0,0,0-1.47Zm.86-14.59H13.13V7a1,1,0,1,0-2.07,0v4.41H6.65a1,1,0,1,0,0,2.07h4.41v4.41a1,1,0,0,0,2.07,0V13.45h4.41a1,1,0,1,0,0-2.07ZM34.9,32.06H25.61a1,1,0,0,0,0,2.07h9.28a1,1,0,0,0,0-2.07Zm0-5.09H25.61a1,1,0,1,0,0,2.07h9.28a1,1,0,0,0,0-2.07Zm-.8-13.52a1,1,0,1,0,0-2.07H24.81a1,1,0,1,0,0,2.07Zm0,0"/></g></g></svg>