<svg xmlns="http://www.w3.org/2000/svg" viewBox="0 0 43.91 43.91"><defs><style>.cls-1{fill:#fff;}</style></defs><title>Camera</title><g id="图层_2" data-name="图层 2"><g id="图层_1-2" data-name="图层 1"><path class="cls-1" d="M22,0a22,22,0,1,0,22,22A22,22,0,0,0,22,0Zm8.73,4.64a15.54,15.54,0,0,1,5.43,3.84,14.16,14.16,0,0,1,1.25,1.36,17.58,17.58,0,0,1,2.58,4.5l.21.52H39.6c-.08,0-8.18-.07-13.71-.07-4.08,0-4.93,0-5.08.06l-1.13.5L30.46,4.57ZM15.93,3.36l.26-.09.26-.09a12.78,12.78,0,0,1,2.36-.56,17.25,17.25,0,0,1,3.13-.29,19.65,19.65,0,0,1,7.23,1.39l.53.21-.41.4C24.17,9.4,16.43,17.1,16.06,17.57l-.12.89ZM4.75,12.59A15.85,15.85,0,0,1,8.09,8,16.62,16.62,0,0,1,9.78,6.49a18.86,18.86,0,0,1,4.47-2.62l.52-.21v.56c-.06,7.2-.11,18.13,0,18.79l.68.63L4.63,12.83ZM3.1,27.77a16.14,16.14,0,0,1-.65-6.3,16.3,16.3,0,0,1,1.34-6.7L4,14.3l.37.37c5.08,5.14,12.79,12.9,13.23,13.24l.5.16h-15M28.06,40.7c0,.08-.57.18-.62.19q-.91.23-1.83.39a21,21,0,0,1-7.86-.16c-.66-.14-1.3-.32-1.94-.53s-1.41-.41-1.63-.52A7.88,7.88,0,0,1,15,39.2c.32-.29.62-.59.92-.89q2.23-2.16,4.43-4.36,2.46-2.44,4.89-4.9c.58-.59,1.16-1.18,1.74-1.78a6.56,6.56,0,0,0,.79-.88l.26.3ZM6.7,34.34A20.47,20.47,0,0,1,5.14,32c-.41-.71-.7-1.48-1.1-2.2-.2-.35.05-.48.38-.48l18.76,0L13.09,39.42C10.25,38.17,6.7,34.34,6.7,34.34Zm32.79-3.53c-.08.16-.2.35-.31.55s-.22.36-.3.52a18.55,18.55,0,0,1-3.08,4,16.72,16.72,0,0,1-1.7,1.54A19.05,19.05,0,0,1,29.86,40l-.3.12-.45.18v-.41h0v-.15c0-.84.14-17.86,0-18.59l.36-.21,9.85,9.85Zm.4-1-.4-.41c-5.08-5.14-12.79-12.9-13.23-13.24l-1-.29H40.52l.09.26A18.09,18.09,0,0,1,41.49,22a19.44,19.44,0,0,1-1.39,7.23Z"/></g></g></svg>