<svg xmlns="http://www.w3.org/2000/svg" viewBox="0 0 40.78 42"><defs><style>.cls-1{fill:#fff;}</style></defs><title>Screenshot</title><g id="图层_2" data-name="图层 2"><g id="图层_1-2" data-name="图层 1"><path class="cls-1" d="M39.16,34.29H37.74v-28a1.39,1.39,0,0,0-1.42-1.42H5.68V1.42A1.52,1.52,0,0,0,4.26,0,1.39,1.39,0,0,0,2.84,1.42V4.87H1.42A1.39,1.39,0,0,0,0,6.29,1.39,1.39,0,0,0,1.42,7.71H2.84v28a1.39,1.39,0,0,0,1.42,1.42H35.1v3.45a1.42,1.42,0,0,0,2.84,0V37.13h1.42a1.39,1.39,0,0,0,1.42-1.42,2,2,0,0,0-1.62-1.42Zm-4.26,0H5.68V7.71H35.1V34.29ZM10.55,14.81a2.77,2.77,0,0,0,2.84,2.84A2.73,2.73,0,0,0,16,14.81,2.87,2.87,0,0,0,13.39,12a2.9,2.9,0,0,0-2.84,2.84Zm22.32,15L28.81,18.67a1.05,1.05,0,0,0-.81-.41.81.81,0,0,0-.81.41l-4.67,7.1c-.2.41-.61.41-1,.2l-8.12-3.86a.89.89,0,0,0-1,.2l-4.87,7.3a.62.62,0,0,0,0,.81c.2.2.41.41.61.41H31.86c.2,0,.41-.2.61-.41.41,0,.41-.41.41-.61Zm0,0"/></g></g></svg>