<?xml version="1.0" encoding="utf-8"?>
<!-- Generator: Adobe Illustrator 21.1.0, SVG Export Plug-In . SVG Version: 6.00 Build 0)  -->
<svg version="1.1" id="图层_1" xmlns="http://www.w3.org/2000/svg" xmlns:xlink="http://www.w3.org/1999/xlink" x="0px" y="0px"
	 viewBox="0 0 44 37" style="enable-background:new 0 0 44 37;" xml:space="preserve">
<style type="text/css">
	.st0{fill:#FFFFFF;}
</style>
<title>Marquee</title>
<g id="图层_2">
	<g id="图层_1-2">
		<g>
			<path class="st0" d="M39,37h-0.9v-2H39c1.3,0,2.4-0.8,2.8-2l1.9,0.6C43,35.6,41.1,37,39,37z M34.2,37h-5.9v-2h5.9V37z M24.4,37
				h-5.9v-2h5.9V37z M14.6,37H8.7v-2h5.9V37z M4.7,37c-2.6-0.1-4.6-2.2-4.7-4.8l2-0.1c0.1,1.5,1.3,2.8,2.8,2.9L4.7,37z M44,29.4h-2
				v-5.9h2V29.4z M2,28.3H0v-5.9h2V28.3z M44,19.6h-2v-5.9h2V19.6z M2,18.5H0v-5.9h2V18.5z M44,9.8h-2V5c0-0.3,0-0.5-0.1-0.8
				l1.9-0.5C43.9,4.1,44,4.5,44,5V9.8z M2,8.7H0V5c0-0.9,0.3-1.8,0.8-2.6l1.7,1.1C2.2,3.9,2,4.4,2,5V8.7z M39.9,2.2
				C39.6,2.1,39.3,2,39,2h-4.6V0H39c0.5,0,1.1,0.1,1.6,0.3L39.9,2.2z M4.9,2L4.8,0L5,0h5.9v2L4.9,2z M30.5,2h-5.9V0h5.9V2z M20.7,2
				h-5.9V0h5.9V2z"/>
		</g>
	</g>
</g>
</svg>
