<svg xmlns="http://www.w3.org/2000/svg" viewBox="0 0 47 34.35"><defs><style>.cls-1{fill:none;stroke:#fff;stroke-miterlimit:10;stroke-width:2px;}</style></defs><title>Circle, Triangle, Star</title><g id="图层_2" data-name="图层 2"><g id="图层_1-2" data-name="图层 1"><path class="cls-1" d="M34.09,8.27c-.16-5-3.6-9-8.17-6.53-1.62.87-2.5,2.56-4.11,3.46a10.31,10.31,0,0,1-5,.93c-3.49,0-7.55-1.28-8.6,2.7-.71,2.71,3.41,4.44,2.4,7A5,5,0,0,1,8.48,17.8a18.92,18.92,0,0,0-5,4.14c-2.76,3.36-3,4.92-2,7a7.37,7.37,0,0,0,8.22,3.37c3.9-1.29,3.53-4,7.87-5.47,3.66-1.2,4.78,1.38,6.15,3.49,2.59,4,7.62,3.83,11.05.37,1.12-1.13,3-3.59,2.64-5.2-.3-1.3-2.36-2.09-3.35-3-3.5-3.1,2.38-4.21,5.46-5.35s7.69-3.32,6.12-7.36c-.54-1.38-4.29-2.62-5.8-2.14-2.14.68-5.74,2.45-5.8.54Zm0,0"/></g></g></svg>