<svg xmlns="http://www.w3.org/2000/svg" viewBox="0 0 41.98 42"><defs><style>.cls-1{fill:#fff;}</style></defs><title>Ruler</title><g id="图层_2" data-name="图层 2"><g id="图层_1-2" data-name="图层 1"><path class="cls-1" d="M40.22,9.3,30.9,0,0,30.9l9.3,9.32a6.07,6.07,0,0,0,8.58,0L40.22,17.88a6.12,6.12,0,0,0,0-8.59ZM39,16.61,16.61,39a4.37,4.37,0,0,1-6.12,0l-8-8.07,3.72-3.72L13,34l1.22-1.22L7.4,26l3.72-3.72,4.37,4.37,1.22-1.22L12.34,21l3.72-3.72,6.8,6.8,1.22-1.22-6.8-6.8L21,12.35l4.37,4.37,1.22-1.22-4.37-4.37,3.72-3.72,6.8,6.8L34,13,27.19,6.17,30.9,2.45l8.07,8a4.37,4.37,0,0,1,0,6.12Zm0,0"/></g></g></svg>