<?xml version="1.0" encoding="utf-8"?>
<!-- Generator: Adobe Illustrator 21.1.0, SVG Export Plug-In . SVG Version: 6.00 Build 0)  -->
<svg version="1.1" id="图层_1" xmlns="http://www.w3.org/2000/svg" xmlns:xlink="http://www.w3.org/1999/xlink" x="0px" y="0px"
	 viewBox="0 0 40 35.7" style="enable-background:new 0 0 40 35.7;" xml:space="preserve">
<style type="text/css">
	.st0{fill:#FFFFFF;}
</style>
<title>Triangle</title>
<g id="图层_2">
	<g id="图层_1-2">
		<g>
			<path class="st0" d="M3.7,35.6c-0.6,0-1.3-0.2-1.9-0.5c-0.9-0.5-1.5-1.3-1.7-2.3s-0.1-2,0.4-2.8L16.8,1.9c0.3-0.6,0.8-1,1.4-1.4
				C19,0,20-0.1,21,0.1c1,0.3,1.8,0.9,2.3,1.7l16.3,28.2c0.3,0.6,0.5,1.2,0.5,1.9c0,1-0.4,1.9-1.1,2.6c-0.7,0.7-1.6,1.1-2.6,1.1
				c0,0,0,0,0,0H3.7C3.7,35.6,3.7,35.6,3.7,35.6z M20,2c-0.3,0-0.6,0.1-0.9,0.2c-0.3,0.2-0.5,0.4-0.6,0.6c0,0,0,0,0,0L2.2,31.1
				c-0.2,0.4-0.3,0.9-0.2,1.3c0.1,0.4,0.4,0.8,0.8,1c0.3,0.2,0.6,0.2,0.9,0.2c0,0,0,0,0,0h32.6c0,0,0,0,0,0c0.5,0,0.9-0.2,1.2-0.5
				c0.3-0.3,0.5-0.8,0.5-1.2c0-0.3-0.1-0.6-0.2-0.9L21.5,2.9c-0.2-0.4-0.6-0.7-1-0.8C20.3,2,20.2,2,20,2z M17.6,2.4L17.6,2.4
				L17.6,2.4z"/>
		</g>
	</g>
</g>
</svg>
