<?xml version="1.0" encoding="utf-8"?>
<!-- Generator: Adobe Illustrator 21.1.0, SVG Export Plug-In . SVG Version: 6.00 Build 0)  -->
<svg version="1.1" id="图层_1" xmlns="http://www.w3.org/2000/svg" xmlns:xlink="http://www.w3.org/1999/xlink" x="0px" y="0px"
	 viewBox="0 0 38.5 43" style="enable-background:new 0 0 38.5 43;" xml:space="preserve">
<style type="text/css">
	.st0{fill:#FFFFFF;}
</style>
<title>Erase All</title>
<g id="图层_2">
	<g id="图层_1-2">
		<g>
			<path class="st0" d="M13.2,43c-0.6,0-1.1,0-1.7-0.1c-5.4-1-7.7-6.3-7.8-6.5c0,0,0-0.1,0-0.1c-0.5-1.8-1-3.7-1.5-5.5
				c-0.8-2.6-1.5-5.4-2.1-8.1c0,0,0,0,0,0c0,0,0-0.1,0-0.1c-0.2-0.9,0-1.9,0.5-2.7c0.5-0.8,1.3-1.4,2.2-1.6c1-0.3,1.9-0.2,2.7,0.2
				c1.6,0.9,2.1,3.2,2.5,5c0.1,0.3,0.1,0.6,0.2,0.9l7.2-12.8c0.5-0.9,3-5.2,5.6-4.4c1,0.3,1.6,0.9,1.9,1.4c0.4-0.3,0.8-0.6,1.3-0.8
				c0.8-0.3,1.7-0.3,2.4,0c0.9,0.4,1.5,1.1,1.7,1.9c0.3,0.9,0.1,2-0.3,2.9c0.4,0,0.8,0,1.2,0.1c1.4,0.4,2.2,1.6,2.2,3.2
				c0,1.2-0.4,2.5-0.9,3.7c0.3,0,0.7,0.1,1,0.2c1.3,0.6,1.7,2,0.9,3.9c0,0,0,0.1-0.1,0.1c-0.1,0.2-0.2,0.4-0.4,0.6l-7.3,10.5
				c-0.3,0.4-0.6,0.9-0.9,1.4c-0.9,1.4-1.8,2.9-3.1,4C18.6,42,15.9,43,13.2,43z M5.6,35.7c0.2,0.5,2.2,4.5,6.2,5.2
				c2.7,0.4,5.4-0.4,7.5-2.1c1-0.9,1.9-2.2,2.7-3.5c0.3-0.5,0.6-1,1-1.5l7.4-10.6c0.1-0.1,0.2-0.2,0.2-0.3c0.2-0.6,0.3-1.1,0.1-1.2
				c-0.9-0.4-2,0.9-2.3,1.3c0,0,0,0,0,0c-0.3,0.4-1,0.5-1.4,0.2c-0.4-0.3-0.5-1-0.2-1.4c0,0,0,0,0,0c1.6-2.2,2.5-4.3,2.5-5.9
				c0-0.7-0.2-1.2-0.7-1.3c-0.6-0.2-1.7,0.2-2.3,1.1l-0.1,0.1c-0.3,0.5-0.9,0.6-1.4,0.3c-0.5-0.3-0.6-0.9-0.3-1.4c0,0,0-0.1,0.1-0.1
				l0,0c0.6-1,2.1-3.2,1.7-4.4c-0.1-0.2-0.2-0.5-0.6-0.7c-0.1,0-0.3-0.2-0.8,0c-0.7,0.3-1.4,1-1.9,1.8c-0.2,0.5-0.4,0.8-0.4,0.8
				c-0.3,0.4-0.8,0.6-1.3,0.3c-0.5-0.2-0.7-0.8-0.5-1.3c0.1-0.3,0.2-0.5,0.4-0.8c0.1-0.3,0.2-0.6,0.1-0.9C21.3,9.4,21,9.1,20.5,9
				c-0.7-0.2-2.3,1.7-3.3,3.5c0,0,0,0,0,0L8.9,27.3C8.6,27.8,8,28,7.5,27.7c-0.4-0.2-0.6-0.6-0.5-1c-0.1-0.2-0.2-0.6-0.3-0.8
				c-0.1-0.2-0.1-0.3-0.2-0.4c-0.2-0.5-0.3-1.1-0.4-1.7c-0.3-1.4-0.7-3.2-1.6-3.7c-0.1-0.1-0.5-0.3-1.2,0c-0.5,0.1-0.8,0.4-1.1,0.7
				C2,21.2,1.9,21.6,2,22c0,0,0,0.1,0,0.2c0.5,2.6,1.3,5.3,2.1,7.9C4.6,32,5.2,33.8,5.6,35.7z M7.1,26.3C7.1,26.3,7.1,26.3,7.1,26.3
				C7.1,26.3,7.1,26.3,7.1,26.3z M16.3,12L16.3,12L16.3,12z"/>
		</g>
		<g>
			<path class="st0" d="M20.8,23.5c-0.2,0-0.4-0.1-0.5-0.2C19.8,23,19.7,22.4,20,22l4.7-7.2c0.3-0.5,0.9-0.6,1.4-0.3
				c0.5,0.3,0.6,0.9,0.3,1.4L21.7,23C21.5,23.3,21.2,23.5,20.8,23.5z"/>
		</g>
		<g>
			<path class="st0" d="M15.9,22.6c-0.2,0-0.4,0-0.5-0.1c-0.5-0.3-0.6-0.9-0.3-1.4l6-10c0.3-0.5,0.9-0.6,1.4-0.3
				c0.5,0.3,0.6,0.9,0.3,1.4l-6,10C16.6,22.5,16.2,22.6,15.9,22.6z"/>
		</g>
		<g>
			<path class="st0" d="M23.7,29.1c-0.2,0-0.4-0.1-0.6-0.2c-0.5-0.3-0.6-0.9-0.2-1.4l4-5.7c0.3-0.5,0.9-0.6,1.4-0.2
				c0.5,0.3,0.6,0.9,0.2,1.4l-4,5.7C24.3,28.9,24,29.1,23.7,29.1z"/>
		</g>
		<g>
			<path class="st0" d="M2.1,8.8L1.3,7.5c4.6-3.1,9.9-5,15.4-5.7l0.1,1.5C11.5,4,6.5,5.9,2.1,8.8z"/>
		</g>
		<g>
			<path class="st0" d="M15,5.9c-0.4,0.1-0.8-0.2-0.9-0.6c0-0.2,0-0.4,0.1-0.6l1.4-2l-2-1.4c-0.3-0.2-0.4-0.7-0.2-1.1
				s0.7-0.4,1.1-0.2c0,0,0,0,0,0L17.1,2c0.3,0.2,0.4,0.7,0.2,1l-1.8,2.6C15.4,5.8,15.2,5.9,15,5.9z"/>
		</g>
		<g>
			<path class="st0" d="M33.1,40.2v-4.7c0-0.2-0.2-0.4-0.4-0.4s-0.4,0.2-0.4,0.4v4.7c0,0.2,0.2,0.4,0.4,0.4l0,0
				C32.9,40.6,33.1,40.4,33.1,40.2C33.1,40.2,33.1,40.2,33.1,40.2z M32.3,33h2.9c0.2,0,0.4-0.2,0.4-0.4s-0.2-0.4-0.4-0.4h-2.9
				c-0.2,0-0.4,0.2-0.4,0.4l0,0C32,32.8,32.1,33,32.3,33C32.3,33,32.3,33,32.3,33z M37,34.8c-0.2,0-0.4,0.2-0.4,0.4l0,0v5.4
				c0,0.4-0.3,0.7-0.7,0.7c0,0,0,0,0,0h-4.3c-0.4,0-0.7-0.3-0.7-0.7c0,0,0,0,0,0v-5.4c0-0.2-0.2-0.4-0.4-0.4s-0.4,0.2-0.4,0.4
				c0,0,0,0,0,0v6.1c0,0.4,0.3,0.7,0.7,0.7c0,0,0,0,0,0h5.7c0.4,0,0.7-0.3,0.7-0.7c0,0,0,0,0,0v-6.1C37.4,35,37.2,34.8,37,34.8
				L37,34.8z M38.1,33.4h-8.6c-0.2,0-0.4,0.2-0.4,0.4s0.2,0.4,0.4,0.4h8.6c0.2,0,0.4-0.2,0.4-0.4l0,0C38.4,33.6,38.3,33.4,38.1,33.4
				z M35.2,40.2v-4.7c0-0.2-0.2-0.4-0.4-0.4s-0.4,0.2-0.4,0.4v4.7c0,0.2,0.2,0.4,0.4,0.4l0,0C35,40.6,35.2,40.4,35.2,40.2
				C35.2,40.2,35.2,40.2,35.2,40.2L35.2,40.2z"/>
		</g>
	</g>
</g>
</svg>
