<svg xmlns="http://www.w3.org/2000/svg" viewBox="0 0 43 34.45"><defs><style>.cls-1{fill:#bbb;}.cls-1,.cls-2,.cls-3,.cls-4{stroke:#fff;}.cls-1,.cls-2,.cls-4{stroke-miterlimit:10;}.cls-2,.cls-3{fill:none;stroke-width:2px;}.cls-3{stroke-linecap:round;stroke-linejoin:round;}.cls-4{fill:#f4f4f4;}.cls-5{fill:#fff;}</style></defs><title>Line</title><g id="图层_2" data-name="图层 2"><g id="图层_1-2" data-name="图层 1"><path class="cls-1" d="M6.22,24.94c1.36.6,7.51,3.92,11.48,1.27l3.89-3.38-2-5.92Z"/><path class="cls-2" d="M33.58,5,10.67,24.44c-2.5,1.93-3.09,1.1-4.45.49L2.12,22.3c-1.18-.59-1.57-1.81-.48-2.69L23.76,2c1.09-.87,2.18-1.37,3.53-.76"/><path class="cls-3" d="M27.3,1.27,37.51,6.47c1.8.94,2,1.92.64,3.1l-21,17.15c-4,2.65-9.55-1.18-10.91-1.79"/><path class="cls-4" d="M19.63,16.9l-9,7.54c-2.5,1.93-3.09,1.1-4.45.49L2.12,22.3c-1.18-.59-1.57-1.81-.48-2.69l9.89-7.86Z"/><rect class="cls-5" x="6.54" y="31.82" width="36.46" height="2.63" rx="1.15" ry="1.15"/></g></g></svg>