<svg xmlns="http://www.w3.org/2000/svg" viewBox="0 0 44 35"><defs><style>.cls-1{fill:#bbb;}.cls-1,.cls-2,.cls-3,.cls-4{stroke:#fff;}.cls-1,.cls-2,.cls-4{stroke-miterlimit:10;}.cls-2,.cls-3{fill:none;stroke-width:2px;}.cls-3{stroke-linecap:round;stroke-linejoin:round;}.cls-4{fill:#f4f4f4;}.cls-5{fill:#fff;}</style></defs><title>Spot</title><g id="图层_2" data-name="图层 2"><g id="图层_1-2" data-name="图层 1"><path class="cls-1" d="M6.77,27.43c1.5.67,8.29,4.33,12.67,1.4l4.3-3.73-2.16-6.54Z"/><path class="cls-2" d="M37,5.46,11.68,26.89C8.92,29,8.26,28.1,6.77,27.43L2.24,24.52c-1.31-.65-1.73-2-.53-3L26.13,2.14c1.21-1,2.41-1.51,3.9-.84"/><path class="cls-3" d="M30,1.29,41.31,7c2,1,2.22,2.12.71,3.43L18.81,29.4c-4.39,2.93-10.55-1.31-12-2"/><path class="cls-4" d="M21.57,18.56l-9.89,8.33C8.92,29,8.26,28.1,6.77,27.43L2.24,24.52c-1.31-.65-1.73-2-.53-3l10.92-8.68Z"/><circle class="cls-5" cx="36.31" cy="31.53" r="3.48"/><circle class="cls-5" cx="26.46" cy="33.26" r="1.74"/></g></g></svg>