<svg xmlns="http://www.w3.org/2000/svg" viewBox="0 0 42 42"><defs><style>.cls-1{fill:#fff;}</style></defs><title>Bar Graph</title><g id="图层_2" data-name="图层 2"><g id="图层_1-2" data-name="图层 1"><path class="cls-1" d="M40.38,38.77H3.23V1.62A1.61,1.61,0,1,0,0,1.62V40.39A1.62,1.62,0,0,0,1.62,42H40.39a1.61,1.61,0,1,0,0-3.23Zm0,0"/><path class="cls-1" d="M9.72,35.9h5.46a1.08,1.08,0,0,0,1.08-1.08V20.1A1.08,1.08,0,0,0,15.18,19H9.72A1.08,1.08,0,0,0,8.64,20.1V34.82A1.07,1.07,0,0,0,9.72,35.9Zm24.2,0h5.46a1.08,1.08,0,0,0,1.08-1.08V12.38a1.08,1.08,0,0,0-1.08-1.08H33.92a1.08,1.08,0,0,0-1.08,1.08V34.82a1.08,1.08,0,0,0,1.08,1.08Zm-12.1,0h5.46a1.08,1.08,0,0,0,1.08-1.08V2.69a1.08,1.08,0,0,0-1.08-1.08H21.82a1.08,1.08,0,0,0-1.08,1.08V34.82a1.08,1.08,0,0,0,1.08,1.08Zm0,0"/></g></g></svg>