<svg xmlns="http://www.w3.org/2000/svg" viewBox="0 0 42 41.99"><defs><style>.cls-1{fill:#fff;}</style></defs><title>Pie Chart</title><g id="图层_2" data-name="图层 2"><g id="图层_1-2" data-name="图层 1"><path class="cls-1" d="M21,42A21,21,0,1,1,42,21c0,.52,0,1-.06,1.43A21,21,0,0,1,21,42ZM21,2.62A18.38,18.38,0,1,0,39.33,22.23c0-.4,0-.79,0-1.24A18.38,18.38,0,0,0,21,2.62Zm0,0"/><path class="cls-1" d="M21,21.65a.65.65,0,0,1-.46-.19L6.73,7.65a.65.65,0,0,1,.93-.93L21,20.06,34.05,6.24a.65.65,0,0,1,1,.9L21.48,21.45a.66.66,0,0,1-.47.2Zm0,0"/><path class="cls-1" d="M21,21.65a.65.65,0,0,1,0-1.31l19-.55a.66.66,0,0,1,.67.64.65.65,0,0,1-.64.67l-19,.55Zm0,0"/></g></g></svg>