<svg xmlns="http://www.w3.org/2000/svg" viewBox="0 0 42 35.54"><defs><style>.cls-1{fill:#fff;}</style></defs><title>Tables</title><g id="图层_2" data-name="图层 2"><g id="图层_1-2" data-name="图层 1"><path class="cls-1" d="M39.82,0H2.18A2.19,2.19,0,0,0,0,2.19V33.36a2.19,2.19,0,0,0,2.18,2.18H39.82A2.19,2.19,0,0,0,42,33.35V2.18A2.19,2.19,0,0,0,39.82,0ZM12.94,33.82a1,1,0,0,1-1,1h-10a1,1,0,0,1-1-1v-6a1,1,0,0,1,1-1h10a1,1,0,0,1,1,1Zm0-10.53a1,1,0,0,1-1,1h-10a1,1,0,0,1-1-1v-6a1,1,0,0,1,1-1h10a1,1,0,0,1,1,1Zm0-10.46a1,1,0,0,1-1,1h-10a1,1,0,0,1-1-1v-6a1,1,0,0,1,1-1h10a1,1,0,0,1,1,1Zm14,21a1,1,0,0,1-1,1H16a1,1,0,0,1-1-1v-6a1,1,0,0,1,1-1H26a1,1,0,0,1,1,1Zm0-10.53a1,1,0,0,1-1,1H16a1,1,0,0,1-1-1v-6a1,1,0,0,1,1-1H26a1,1,0,0,1,1,1Zm0-10.46a1,1,0,0,1-1,1H16a1,1,0,0,1-1-1v-6a1,1,0,0,1,1-1H26a1,1,0,0,1,1,1Zm14.16,21a1,1,0,0,1-1,1h-10a1,1,0,0,1-1-1v-6a1,1,0,0,1,1-1h10a1,1,0,0,1,1,1Zm0-10.53a1,1,0,0,1-1,1h-10a1,1,0,0,1-1-1v-6a1,1,0,0,1,1-1h10a1,1,0,0,1,1,1Zm0-10.46a1,1,0,0,1-1,1h-10a1,1,0,0,1-1-1v-6a1,1,0,0,1,1-1h10a1,1,0,0,1,1,1Zm0,0"/></g></g></svg>