<svg xmlns="http://www.w3.org/2000/svg" viewBox="0 0 40.8 42"><defs><style>.cls-1{fill:#fff;}</style></defs><title>Highlighter</title><g id="图层_2" data-name="图层 2"><g id="图层_1-2" data-name="图层 1"><path class="cls-1" d="M4.35,30.94,2.31,33a.59.59,0,0,0,.21,1L6.1,35.4a.59.59,0,0,0,.64-.14l1-1Z"/><path class="cls-1" d="M6.31,35.68A.84.84,0,0,1,6,35.62L2.43,34.22a.83.83,0,0,1-.29-1.36l2.21-2.27L8,34.28,6.91,35.43A.83.83,0,0,1,6.31,35.68Zm-2-4.4L2.48,33.2a.34.34,0,0,0,.12.56l3.58,1.41a.34.34,0,0,0,.38-.08l.78-.8Z"/><path class="cls-1" d="M6.35,22.43,5.93,23A4.77,4.77,0,0,0,4.77,25.5a5.34,5.34,0,0,0,1,3.32L4.71,29.9l2.46,2.45,1.57,1.58,1.08-1.1a5.34,5.34,0,0,0,3.32,1,4.77,4.77,0,0,0,2.55-1.16l.52-.42Z"/><path class="cls-1" d="M31.66,0a7,7,0,0,0-4.93,2L7.3,21.47l9.87,9.87L36.6,11.91A7,7,0,0,0,31.66,0M10.07,21.17,24.73,6.51l7.4,7.4L17.47,28.57M35.36,10.68l-2,2L26,5.28l2-2a5.39,5.39,0,0,1,3.7-1.53,5.23,5.23,0,0,1,3.7,8.93"/><path class="cls-1" d="M38.62,42H2.19a2.19,2.19,0,1,1,0-4.37H38.62a2.19,2.19,0,0,1,0,4.37Z"/></g></g></svg>