<svg xmlns="http://www.w3.org/2000/svg" viewBox="0 0 48 43.13"><defs><style>.cls-1{fill:#fff;}</style></defs><title>Magic Pen</title><g id="图层_2" data-name="图层 2"><g id="图层_1-2" data-name="图层 1"><polygon class="cls-1" points="6.19 37.98 5.39 41.96 9.37 41.16 12.82 43.02 13.53 38.78 16.71 36.3 12.82 34.53 11.05 30.65 8.58 33.83 4.33 34.53 6.19 37.98"/><polygon class="cls-1" points="30.46 41.21 31.98 39.9 30.19 39 29.41 37.22 27.84 38.66 25.84 38.66 26.82 40.53 26.32 42.59 28.26 42.11 30.13 43.13 30.46 41.21"/><polygon class="cls-1" points="12.74 19.98 14.27 18.68 12.47 17.77 11.69 15.99 10.12 17.43 8.13 17.43 9.1 19.31 8.61 21.36 10.54 20.88 12.41 21.9 12.74 19.98"/><polygon class="cls-1" points="32.6 33.2 33.39 32.52 32.46 32.06 32.06 31.14 31.25 31.88 30.21 31.88 30.72 32.85 30.46 33.92 31.46 33.66 32.43 34.19 32.6 33.2"/><polygon class="cls-1" points="2.39 25.9 3.18 25.22 2.25 24.75 1.85 23.83 1.03 24.57 0 24.57 0.51 25.55 0.25 26.61 1.25 26.36 2.22 26.89 2.39 25.9"/><path class="cls-1" d="M26,26.36a4.42,4.42,0,0,1-3.12-7.54L40.46,1.29a4.42,4.42,0,0,1,6.25,6.25L29.14,25.06A4.39,4.39,0,0,1,26,26.36ZM43.58,1.92a2.49,2.49,0,0,0-1.77.73L24.26,20.17a2.5,2.5,0,0,0,0,3.53,2.56,2.56,0,0,0,3.53,0L45.35,6.18a2.49,2.49,0,0,0-1.77-4.26Z"/><path class="cls-1" d="M17.6,31.75a1.2,1.2,0,0,1-1.12-1.62l2.72-7.39,1.2,1.2-.13.38a2.8,2.8,0,0,0,.66,2.93h0a2.8,2.8,0,0,0,2.93.66l.38-.13L25.4,29,18,31.68A1.22,1.22,0,0,1,17.6,31.75Zm1.5-5-1.36,3.68,3.67-1.35A4.06,4.06,0,0,1,20,28.16h0A4.07,4.07,0,0,1,19.09,26.73Z"/></g></g></svg>