<svg xmlns="http://www.w3.org/2000/svg" viewBox="0 0 41.71 48.5"><defs><style>.cls-1,.cls-2{fill:#fff;}.cls-1{stroke:#fff;stroke-linecap:round;stroke-linejoin:round;}</style></defs><title>Marker</title><g id="图层_2" data-name="图层 2"><g id="图层_1-2" data-name="图层 1"><path class="cls-1" d="M40.81,45.56c-9.46-5.89-14.59-5.94-24.7-.7-5.34,2.77-9.66,1.1-12-1.16a5.9,5.9,0,0,1-1.67-6.08l-.41.16H2a.83.83,0,0,1-.25,0A.84.84,0,0,1,1,36.73H1a7.57,7.57,0,0,0,2,8.19A10.74,10.74,0,0,0,10.47,48a14.06,14.06,0,0,0,6.4-1.61c9.6-4.86,14.12-4.93,23,.62a.85.85,0,0,0,1.17-.28.86.86,0,0,0-.28-1.18"/><path class="cls-2" d="M31.54,0a6.51,6.51,0,0,0-4.62,1.91L5,23.79a.85.85,0,0,0-.23.41L2.44,34.61a.85.85,0,0,0,1,1l10.41-2.37a.85.85,0,0,0,.41-.23L36.16,11.15A6.53,6.53,0,0,0,31.54,0M12.75,31.68,7,33V31h-2l1.34-5.72h6.36Zm1.63-1.07V24.5a.82.82,0,0,0-.82-.82H7.46L25,6.1,32,13ZM35,10l-1.87,1.87L26.2,4.94l1.87-1.87a5.05,5.05,0,0,1,3.46-1.44A4.9,4.9,0,0,1,35,10"/></g></g></svg>